<?xml version="1.0" encoding="UTF-8" standalone="no"?>
<svg
   width="1750"
   height="1750"
   version="1.1"
   id="svg282"
   viewBox="0 0 1750 1750"
   xmlns="http://www.w3.org/2000/svg"
   xmlns:svg="http://www.w3.org/2000/svg">
  <defs
     id="_defs" />
  <style
     id="_style">
    .backyard {
      fill:url(#backyard_pattern);
    }
    .adjuster {
      fill:none;
    }
    .main_base {
      fill:#ffffe0;
    }
    .annex_base {
      fill:#e0ffff;
    }
    .normal, .unuse, .veranda, .wc, .ev {
      fill:#cccccc;
      stroke:#000000;
    }
    .white {
      fill:#ffffff;
    }
    .program {
      fill:#1c9dff;
      stroke:#1c51ff;
      stroke-width:3px;
    }
    .frame {
      fill:none;
      stroke:#000000;
    }
    .pframe {
      fill:none;
      stroke:#1c51ff;
      stroke-width:3px;
    }
    .preview {
       fill:none;
       stroke:#80ff80;
    }
  </style>
  <g
     id="floor1"
     style="display:inline">
    <g
       id="programs1"
       style="display:inline">
      <path
         id="sl2-presentation,dance-club,drama-club,music-club"
         class="preview"
         d="m 1295,1271 h -104 v 165 h 104 v 22 h 80 v 49 h 91 v -302 h -91 v 44 h -80 z" />
      <path
         id="art-club"
         class="preview"
         d="m 768,228 h 137 v 74 H 799 v -39 h -31 z" />
      <path
         id="chado-club"
         class="preview"
         d="m 990,517 h 23 v -10 h 50 v 10 h 20 v 65 h 16 v 9 H 990 Z" />
      <path
         id="science-com,science-com2,science-com3"
         class="preview"
         d="m 588,806 v 74 h 135 v -74 z" />
      <path
         id="cafe"
         class="preview"
         d="m 399,1205 16,151 h 311 v -151 z" />
      <path
         id="karuta-club"
         class="preview"
         d="m 810,1356 v 151 h 276 v -151 z" />
      <path
         id="hokan-com"
         class="preview"
         d="m 864.5,845 v 39 h 109 v -39 z" />
      <path
         id="company-exhibitation"
         class="preview"
         d="m 995,1356 h 91 V 1205 H 810 v 151 h 95 v -30 h 90 z" />
      <path
         id="pta-oshikatsu-shop"
         class="preview"
         d="m 404,816 h 28 v 96 h -28 z" />
      <path
         id="original-goods"
         class="preview"
         d="M 432,534 V 668 H 404 V 534 Z" />
    </g>
  </g>
</svg>
