<?xml version="1.0" encoding="UTF-8" standalone="no"?>
<svg
   width="1087"
   height="1279"
   version="1.1"
   id="svg282"
   viewBox="0 0 1087 1279"
   xmlns="http://www.w3.org/2000/svg"
   xmlns:svg="http://www.w3.org/2000/svg">
  <defs
     id="defs1" />
  <!-- 1階 -->
  <g
     id="floor_6"
     style="display:inline">
    <g
       id="bg6"
       style="display:inline">
      <path
         fill="none"
         stroke="#000000"
         d="m 75,578 h 227 v 74 H 566 V 578 H 793 V 762 H 75 Z"
         id="path272-4"
         style="fill:#ffffff;fill-opacity:1;stroke:none" />
      <!-- 6階 -->
      <path
         fill="#e0ffff"
         stroke="#000000"
         d="m 167,652 h -34 v 26 h 10 v 8 H 295 143 v 69 H 735 V 686 H 577 735 v -34 h -29 v 9 H 167 Z"
         id="path270" />
      <path
         fill="none"
         stroke="#000000"
         d="m 680,578 v 83 h 21 v -83 z m 0,31 h 21 z m 0,3 h 21 z m 0,3 h 21 z m 0,3 h 21 z m 0,3 h 21 z m 0,3 h 21 z m 0,3 h 21 z m 0,3 h 21 z m 0,3 h 21 z m 0,3 h 21 z m 0,3 h 21 z m 0,3 h 21 z m 0,3 h 21 z m 0,3 h 21 z m 0,3 h 21 z m 21,-42 -21,-3 z"
         id="____staircase61" />
      <path
         fill="none"
         stroke="#000000"
         d="m 167,578 v 83 h 21 v -83 z m 1,31 h 20 z m -1,3 h 21 z m 0,3 h 21 z m 0,3 h 21 z m 0,3 h 21 z m 0,3 h 21 z m 0,3 h 21 z m 0,3 h 21 z m 0,3 h 21 z m 0,3 h 21 z m 0,3 h 21 z m 0,3 h 21 z m 0,3 h 21 z m 0,3 h 21 z m 0,3 h 21 z m 0,-42 21,-3 z"
         id="____staircase62" />
      <!-- EV -->
      <path
         fill="#ffffff"
         stroke="#000000"
         id="____EV61"
         d="m 706,615 v 37 h 29 v -37 z" />
      <!-- WC\n\n  -->
      <path
         fill="#ffffff"
         stroke="#000000"
         id="____WC62"
         d="m 133,600 v 52 h 34 v -52 z" />
      <path
         fill="none"
         stroke="#000000"
         d="m 75,578 h 227 v 74 H 566 V 578 H 793 V 762 H 75 Z"
         id="____outer6" />
      <!-- 天体観測\n\nドーム -->
      <path
         fill="#c0c0c0"
         stroke="#000000"
         id="Astronomical_Observatory"
         d="" />
      <path
         id="____mostleftup6"
         fill="#000000"
         fill-opacity="0"
         d="M 0,0 V 1 L 1,0 Z" />
    </g>
  </g>
</svg>
