<?xml version="1.0" encoding="UTF-8" standalone="no"?>
<svg
   width="1094"
   height="1281.4"
   version="1.1"
   id="svg282"
   viewBox="0 0 1094 1281.4"
   xmlns="http://www.w3.org/2000/svg"
   xmlns:svg="http://www.w3.org/2000/svg">
  <defs
     id="defs1">
    <pattern
       id="backyard"
       patternUnits="userSpaceOnUse"
       width="20"
       height="20"
       patternTransform="rotate(30)">
      <rect
         width="20"
         height="20"
         fill="gray"
         fill-opacity="0.75"
         id="backyard_bg" />
      <rect
         x="0"
         y="0"
         width="10"
         height="20"
         fill="black"
         id="backyard_shade" />
    </pattern>
  </defs>
  <!-- 1階 -->
  <g
     id="floor_1"
     style="display:inline"
     transform="translate(0.5,1.8999995)">
    <g
       transform="translate(20)"
       id="bg1">
      <path
         fill="#e0ffff"
         stroke="#000000"
         stroke-width="1px"
         d="m 12,977 v 302 H 1069 V 977 Z"
         id="path2" />
      <path
         id="rect5"
         style="fill:#ffffff;fill-rule:evenodd;stroke:#000000"
         d="m 860,977 h 116 v 44 H 860 Z" />
      <path
         id="rect6"
         style="fill:#ffffff;fill-rule:evenodd;stroke:#000000"
         d="m 818,977 h 42 v 44 h -42 z" />
      <!-- 和田昭允記念ホール -->
      <path
         fill="#d0b0ff"
         stroke="#000000"
         stroke-width="1px"
         id="WADA_AKIYOSHI_MEMORIAL_HALL"
         d="m 792,1043 v 165 h 104 v 22 h 80 v 49 h 91 V 977 h -91 v 44 h -80 v 22 z" />
      <path
         style="fill:#ffffff;fill-rule:evenodd;stroke:#000000;stroke-width:1;stroke-miterlimit:4"
         d="m 767,1230 h 141 v 49 H 767 Z"
         id="path3" />
      <path
         style="fill:#ffffff;fill-rule:evenodd;stroke:#000000;stroke-width:1;stroke-miterlimit:4"
         d="m 711,1166 h 56 v 113 h -81 v -33 h 25 z"
         id="path1" />
      <path
         id="path4"
         style="fill:#ffffff;fill-rule:evenodd;stroke:#000000"
         d="m 765,1151 h -5 v 15 h 5 z m -18,0 v -23 h 18 v 23 z" />
      <path
         id="path5"
         style="fill:#ffffff;fill-rule:evenodd;stroke:#000000;stroke-width:1;stroke-miterlimit:4"
         d="m 719,1128 h 28 v 23 h -28 z" />
      <path
         style="fill:#ffffff;fill-rule:evenodd;stroke:#000000;stroke-width:1;stroke-miterlimit:4"
         d="m 687,1129 h 32 m -32,3 h 32 m -32,3 h 32 m -32,3 h 32 m -32,3 h 32 m -32,3 h 32 m -32,3 h 32 m -32,3 h 32"
         id="path6" />
      <!-- 柔剣道場 -->
      <path
         fill="#ffffff"
         stroke="#000000"
         stroke-width="1px"
         id="____jukendo"
         d="m 411,1128 v 151 h 276 v -151 z" />
      <!-- 交流センター -->
      <path
         fill="#ffffff"
         stroke="#000000"
         stroke-width="1px"
         id="Communication_Center"
         d="m 596,1098 h -90 v 30 h 90 z m 0,30 h 91 V 977 H 411 v 151 h 95 v -30 h 90 z" />
      <path
         id="rect7"
         style="fill:#ffffff;fill-rule:evenodd;stroke:#000000"
         d="m 247,1128 h 80 v 80 h -80 z" />
      <path
         id="rect8"
         style="fill:#ffffff;fill-rule:evenodd;stroke:#000000"
         d="m 247,1208 h 80 v 71 h -80 z" />
      <path
         id="rect9"
         style="fill:#ffffff;fill-rule:evenodd;stroke:#000000"
         d="m 76,1128 h 171 v 151 H 76 v -71 H 30 v -26 h 46 z" />
      <!-- カフェテリア -->
      <path
         fill="#ffffff"
         stroke="#000000"
         stroke-width="1px"
         id="Cafeteria"
         d="m 27,977 v 151 H 327 V 977 Z" />
      <path
         fill="#ffffe0"
         d="M 0,0 V 184 H 55 V 0 Z M 0,289 V 473 H 55 V 289 Z M 0,578 V 762 H 55 V 578 Z"
         id="____riverside1" />
      <path
         fill="#ffffe0"
         d="M 772,762 H 910 V 289 H 806 V 0 h -39 v 289 184 h 6 z"
         id="____trainside1" />
      <path
         fill="#ffffe0"
         d="M 25,184 V 289 H 61 V 184 Z m 476,0 v 105 h 51 V 184 Z M 25,473 V 578 H 61 V 473 Z m 476,0 v 105 h 51 V 473 Z"
         id="____passage1" />
      <path
         fill="#ffffe0"
         stroke="#000000"
         stroke-width="1px"
         d="m 61,219 v 36 h 69 v -36 z m 375,0 v 36 h 65 v -36 z m 271,0 v 36 h 60 V 219 Z M 61,508 v 36 h 69 v -36 z"
         id="____staircases1" />
      <path
         fill="#ffffe0"
         d="m 55,578 v 184 h 362 v -22 h 174 v 22 H 773 V 578 Z"
         id="____S1" />
      <path
         fill="#ffffe0"
         d="M 55,289 V 473 H 767 V 289 H 506 Z"
         id="____C1" />
      <path
         fill="#ffffe0"
         d="M 55,0 V 184 H 767 V 0 Z"
         id="____N1" />
      <path
         fill="none"
         stroke="#000000"
         stroke-width="1px"
         d="m 639,578 v 74 z m 42,0 v 74 z m -21,19 v 36 z m -21,0 h 42 z m 0,3 h 42 z m 0,3 h 42 z m 0,3 h 42 z m 0,3 h 21 z m 0,3 h 21 z m 0,3 h 21 z m 0,3 h 21 z m 0,3 h 21 z m 0,3 h 21 z m 0,3 h 21 z m 0,3 h 21 z m 0,3 h 42 z m 42,-24 -21,-3 z"
         id="____staircase11" />
      <path
         fill="none"
         stroke="#000000"
         stroke-width="1px"
         d="m 147,578 v 74 z m 42,0 v 74 z m -21,19 v 36 z m -21,0 h 42 z m 0,3 h 42 z m 0,3 h 42 z m 0,3 h 42 z m 21,3 h 21 z m 0,3 h 21 z m 0,3 h 21 z m 0,3 h 21 z m 0,3 h 21 z m 0,3 h 21 z m 0,3 h 21 z m 0,3 h 21 z m -21,3 h 42 z m 0,-24 21,-3 z"
         id="____staircase12" />
      <path
         fill="none"
         stroke="#000000"
         stroke-width="1px"
         d="m 80,526 h 36 z m 0,-18 v 36 z m 3,18 v 18 z m 3,0 v 18 z m 3,0 v 18 z m 3,0 v 18 z m 3,0 v 18 z m 3,0 v 18 z m 3,0 v 18 z m 3,0 v 18 z m 3,-18 v 36 z m 3,0 v 36 z m 3,0 v 36 z m 3,0 v 36 z m -12,0 3,18 z"
         id="____staircase13" />
      <path
         fill="none"
         stroke="#000000"
         stroke-width="1px"
         d="m 721,237 h 36 z m 0,-18 v 36 z m 3,0 v 36 z m 3,0 v 36 z m 3,0 v 36 z m 3,18 v 18 z m 3,0 v 18 z m 3,0 v 18 z m 3,0 v 18 z m 3,0 v 18 z m 3,0 v 18 z m 3,0 v 18 z m 3,0 v 18 z m 3,-18 v 36 z m -24,0 -3,18 z"
         id="____staircase14" />
      <path
         fill="none"
         stroke="#000000"
         stroke-width="1px"
         d="m 450,237 h 36 z m 0,-18 v 36 z m 3,0 v 36 z m 3,0 v 36 z m 3,0 v 36 z m 3,18 v 18 z m 3,0 v 18 z m 3,0 v 18 z m 3,0 v 18 z m 3,0 v 18 z m 3,0 v 18 z m 3,0 v 18 z m 3,0 v 18 z m 3,-18 v 36 z m -24,0 -3,18 z"
         id="____staircase155" />
      <path
         fill="none"
         stroke="#000000"
         stroke-width="1px"
         d="m 80,237 h 36 z m 0,-18 v 36 z m 3,18 v 18 z m 3,0 v 18 z m 3,0 v 18 z m 3,0 v 18 z m 3,0 v 18 z m 3,0 v 18 z m 3,0 v 18 z m 3,0 v 18 z m 3,-18 v 36 z m 3,0 v 36 z m 3,0 v 36 z m 3,0 v 36 z m -12,0 3,18 z"
         id="____staircase16" />
      <!-- テラス -->
      <path
         fill="#ffd080"
         id="____terrace1"
         d="m 411,473 v 105 h 90 V 473 Z" />
      <path
         fill="#ffd080"
         id="____terrace2"
         d="m 552,184 v 105 h 45 V 184 Z" />
      <path
         fill="#ffffff"
         stroke="#000000"
         stroke-width="1px"
         id="____gomistation"
         d="m 770,0 v 74 h 36 V 0 Z" />
      <!-- EV -->
      <path
         fill="#ffffff"
         stroke="#000000"
         stroke-width="1px"
         id="____EV11"
         d="m 681,615 v 37 h 29 v -37 z" />
      <!-- WC -->
      <path
         fill="#ffffff"
         stroke="#000000"
         stroke-width="1px"
         id="____WC11"
         d="m 681,578 h 92 v 74 h -63 v -37 h -29 z" />
      <!-- WC -->
      <path
         fill="#ffffff"
         stroke="#000000"
         stroke-width="1px"
         id="____WC12"
         d="m 55,578 h 92 v 37 h -29 v 37 H 55 Z" />
      <!-- EV -->
      <path
         fill="#ffffff"
         stroke="#000000"
         stroke-width="1px"
         id="____EV12"
         d="m 414,110 v 37 h 29 v -37 z" />
      <!-- WC -->
      <path
         fill="#ffffff"
         stroke="#000000"
         stroke-width="1px"
         id="____WC13"
         d="m 507,184 h -93 v -37 h 29 v -37 h 64 z" />
      <!-- 校長室 -->
      <path
         fill="#b0d0ff"
         stroke="#000000"
         stroke-width="1px"
         id="Principals_Office"
         d="m 818,381 v 18 h -8 v 37 h 100 v -55 z" />
      <!-- 応接室 -->
      <path
         fill="#b0d0ff"
         stroke="#000000"
         stroke-width="1px"
         id="Reception_Room"
         d="m 818,330 v 51 h 92 v -51 z" />
      <!-- 印刷室 -->
      <path
         fill="#b0d0ff"
         stroke="#000000"
         stroke-width="1px"
         id="Printing_Room"
         d="m 818,289 v 41 h 92 v -41 z" />
      <!-- 職員室 -->
      <path
         fill="#ffffff"
         stroke="#000000"
         stroke-width="1px"
         id="Teachers_Room"
         d="m 810,436 h 116 l 70,326 H 818 v -74 h -8 z" />
      <!-- 事務室 -->
      <path
         fill="#b0d0ff"
         stroke="#000000"
         stroke-width="1px"
         id="School_Office"
         d="m 591,688 v 74 h 136 v -74 z m 48,0 v 74 z" />
      <!-- 昇降口 -->
      <path
         fill="#ffffff"
         stroke="#000000"
         stroke-width="1px"
         id="____syoukouguti"
         d="" />
      <!-- スタ\nジオ -->
      <path
         fill="#d0b0ff"
         stroke="#000000"
         stroke-width="1px"
         id="Studio"
         d="m 327,688 v 74 h 90 v -74 z" />
      <!-- 放\n送\n室 -->
      <path
         fill="#d0b0ff"
         stroke="#000000"
         stroke-width="1px"
         id="Broadcasting_Room"
         d="m 279,688 v 74 h 48 v -74 z" />
      <!-- 保健室 -->
      <path
         fill="#b0d0ff"
         stroke="#000000"
         stroke-width="1px"
         id="Nurses_Office"
         d="m 144,688 v 74 h 135 v -74 z" />
      <!-- 屋外\n実習室 -->
      <path
         fill="#b0ffb0"
         stroke="#000000"
         stroke-width="1px"
         id="Fieldwork_Lab"
         d="m 55,688 v 74 h 89 v -74 z" />
      <!-- 科学\n技術\n顧問室 -->
      <path
         fill="#b0d0ff"
         stroke="#000000"
         stroke-width="1px"
         id="Science_and_Technology_Advisors_Room"
         d="m 324,578 v 74 h 93 v -74 z" />
      <path
         id="____room1"
         style="fill:#ffffff;fill-rule:evenodd;stroke:#000000;stroke-width:1;stroke-linecap:butt;stroke-linejoin:miter;stroke-miterlimit:0;stroke-opacity:1;paint-order:normal"
         d="M 639,473 H 773 V 578 H 639 Z" />
      <!-- 視聴覚室 -->
      <path
         fill="#d0b0ff"
         stroke="#000000"
         stroke-width="1px"
         id="Audio_Visual_Room"
         d="m 189,578 v 74 h 135 v -74 z" />
      <!-- 音楽室 -->
      <path
         fill="#d0b0ff"
         stroke="#000000"
         stroke-width="1px"
         id="Music_Room"
         d="m 546,399 v 74 h 227 v -74 z m 181,0 v 74 z" />
      <path
         fill="#ffffff"
         stroke="#000000"
         stroke-width="1px"
         id="____souko1"
         d="m 459,399 v 74 h 48 v -74 z" />
      <path
         fill="#ffb090"
         stroke="#000000"
         stroke-width="1px"
         id="Nanotechnology_Dept_Office"
         d="m 414,399 v 74 h 45 v -74 z" />
      <!-- ナノ材料評価室 -->
      <path
         fill="#ffb090"
         stroke="#000000"
         stroke-width="1px"
         id="Nanomaterial_Observatory_Room"
         d="m 144,399 v 74 h 270 v -74 z m 45,37 v 37 z m 45,0 v 37 z m 45,0 v 37 z m 45,0 v 37 z m 45,-37 v 37 z m 0,37 h 45 z m 15,-37 v 37 z" />
      <!-- C12\n\n\nC11 -->
      <path
         style="fill:#d0b0ff;fill-opacity:1;stroke:#000000;stroke-opacity:1"
         d="m 55,399 v 74 h 89 v -74 z"
         id="Seminar_Room_C11" />
      <!-- 楽\n器\n室 -->
      <path
         fill="#d0b0ff"
         stroke="#000000"
         stroke-width="1px"
         id="Music_Dept_Stock_Room"
         d="m 739,289 v 74 h 34 v -74 z" />
      <!-- 練\n習\n室 -->
      <path
         fill="#ffffff"
         stroke="#000000"
         stroke-width="1px"
         id="____rensyu"
         d="m 684,289 v 30 h 55 v -30 z m 0,30 h 35 v 44 h -19 v -9 h -16 z" />
      <!-- 和室 -->
      <path
         fill="#d0b0ff"
         stroke="#000000"
         stroke-width="1px"
         id="Tea_Ceremony_Room"
         d="m 591,289 h 23 v -10 h 50 v 10 h 20 v 65 h 16 v 9 H 591 Z" />
      <!-- 電子\n顕微鏡\n室 -->
      <path
         fill="#b0d0ff"
         stroke="#000000"
         stroke-width="1px"
         id="Electron_Microscope_Lab"
         d="m 414,289 v 74 h 93 v -74 z m 45,0 v 74 z" />
      <!-- ナノ材料創製室 -->
      <path
         fill="#ffb090"
         stroke="#000000"
         stroke-width="1px"
         id="Nanomaterial_Generation_Lab"
         d="m 144,289 v 74 h 270 v -74 z m 90,0 v 50 z m 45,0 v 37 z m 45,0 v 37 z" />
      <path
         style="fill:#d0b0ff;fill-opacity:1;stroke:#000000;stroke-opacity:1"
         d="m 55,289 v 74 h 89 v -74 z"
         id="Seminar_Room_C12" />
      <path
         fill="#d0b0ff"
         stroke="#000000"
         stroke-width="1px"
         id="Home_Economics_Dept_Office"
         d="m 727,110 v 74 h 46 v -74 z" />
      <!-- 調理室 -->
      <path
         fill="#d0b0ff"
         stroke="#000000"
         stroke-width="1px"
         id="Cooking_Room"
         d="m 591,110 v 74 h 136 v -74 z" />
      <!-- 環境実験室 -->
      <path
         fill="#b0d0ff"
         stroke="#000000"
         stroke-width="1px"
         id="Environmental_Science_Lab"
         d="m 234,110 v 74 h 180 v -74 z m 135,0 v 74 z" />
      <!-- 分析室 -->
      <path
         fill="#b0d0ff"
         stroke="#000000"
         stroke-width="1px"
         id="Analytical_Lab"
         d="m 55,110 v 74 h 179 v -74 z m 89,0 v 74 z" />
      <!-- 被服室 -->
      <path
         fill="#d0b0ff"
         stroke="#000000"
         stroke-width="1px"
         id="Sewing_Room"
         d="m 684,0 v 74 h 86 V 0 Z" />
      <!-- 美術\n工芸室 -->
      <path
         fill="#d0b0ff"
         stroke="#000000"
         stroke-width="1px"
         id="Art_and_Craft_Room"
         d="M 549,0 V 74 H 684 V 0 Z" />
      <path
         fill="#d0b0ff"
         stroke="#000000"
         stroke-width="1px"
         id="Art_and_Calligraphy_Dept_Office"
         d="m 504,0 v 74 h 45 V 0 Z" />
      <!-- 書道室 -->
      <path
         fill="#d0b0ff"
         stroke="#000000"
         stroke-width="1px"
         id="Calligraphy_Room"
         d="M 371,0 V 74 H 506 V 0 Z m 0,35 v 39 h 29 V 35 Z" />
      <!-- 金工・木工室 -->
      <path
         fill="#d0b0ff"
         stroke="#000000"
         stroke-width="1px"
         id="Metalworking_Woodworking_Woom"
         d="M 101,0 V 74 H 369 V 0 Z M 55,0 v 30 h 46 V 0 Z m 0,30 V 74 H 88 V 30 Z" />
      <path
         fill="none"
         stroke="#000000"
         stroke-width="1px"
         d="m 61,184 h 440 v 35 h -65 v 36 h 65 v 34 H 61 v -34 h 69 V 219 H 61 Z m 491,0 h 215 v 35 h -60 v 36 h 60 v 34 H 664 v -10 h -50 v 10 H 552 Z M 61,473 H 501 V 578 H 61 v -34 h 69 V 508 H 61 Z m 491,0 v 105 h 87 V 473 Z"
         id="____inner1" />
      <path
         fill="none"
         stroke="#000000"
         stroke-width="1px"
         d="m 0,0 h 806 v 289 h 104 v 147 h 16 l 70,326 H 591 V 740 H 417 v 22 H 0 V 578 H 25 V 473 H 0 V 289 H 25 V 184 H 0 Z"
         id="____outer1" />
      <path
         id="____backyard11"
         style="opacity:1;fill:url(#backyard);fill-rule:evenodd;stroke-width:0;stroke-linecap:square;stroke-linejoin:round;stroke-miterlimit:0;paint-order:markers stroke fill"
         d="m 55,0 h 314 v 110 h 45 v 74 H 371 55 Z"
         class="UnoptimicedTransforms" />
      <path
         id="____backyard12"
         style="fill:url(#backyard);fill-rule:evenodd;stroke-width:0;stroke-linecap:square;stroke-linejoin:round;stroke-miterlimit:0;paint-order:markers stroke fill"
         d="M 55,0 H 507 V 184 H 55 Z"
         class="UnoptimicedTransforms"
         transform="translate(0,289)" />
      <path
         id="____backyard13"
         style="fill:url(#backyard);fill-rule:evenodd;stroke-width:0;stroke-linecap:square;stroke-linejoin:round;stroke-miterlimit:0;paint-order:markers stroke fill"
         d="M 514,0 H 816 V 289 H 920 V 436 H 820 V 688 H 783 V 578 H 649 V 473 H 556 V 399 H 710 L 710.0847,354 694,353.89624 V 289 h 83 v -34 h -60 v -36 h 60 V 184 H 601 V 74 h -87 z"
         class="UnoptimicedTransforms"
         transform="translate(-10)" />
    </g>
  </g>
</svg>
