<?xml version="1.0" encoding="UTF-8" standalone="no"?>
<svg
   width="1087"
   height="1279"
   version="1.1"
   id="svg282"
   viewBox="0 0 1087 1279"
   xmlns="http://www.w3.org/2000/svg"
   xmlns:svg="http://www.w3.org/2000/svg">
  <defs
     id="defs1">
    <pattern
       id="backyard"
       patternUnits="userSpaceOnUse"
       width="20"
       height="20"
       patternTransform="rotate(30)">
      <rect
         id="backyard_bg"
         width="20"
         height="20"
         fill="gray"
         fill-opacity="0.75" />
      <rect
         id="backyard_shade"
         x="0"
         y="0"
         width="10"
         height="20"
         fill="black" />
    </pattern>
  </defs>
  <!-- 1階 -->
  <g
     id="floor_2"
     style="display:inline">
    <g
       id="bg2">
      <!-- 2階 -->
      <path
         fill="#e0ffff"
         stroke="#000000"
         d="m 12,977 v 302 H 1067 V 977 H 773 V 952 H 55 v 25 z"
         id="path79" />
      <!-- リバービュー\nラウンジ -->
      <path
         fill="none"
         stroke="#000000"
         d="m 707,1016 h 68 z m 86,-36 h -86 m 43,0 v 18 m 6,-18 v 18 m -3,0 v -18 m 3,18 h -30 m 3,18 v -36 z m 9,0 v -36 z m 6,-18 v -18 z m 3,0 v -18 z m -15,18 v -36 z m 3,0 v -36 z m 6,0 v -36 z m 0,-36 9,18 z m -15,18 v -18"
         id="____staircase11-4-2" />
      <path
         id="rect1-8"
         fill="#ffffff"
         stroke="#000000"
         d="m 739,1128 h 28 v 23 h -28 z" />
      <path
         fill="#ffffff"
         stroke="#000000"
         id="____riverviewlounge2"
         d="m 32,1128 v 151 h 79 V 1128 H 70 V 977 H 45 v 151 z" />
      <!-- アリーナ -->
      <path
         style="fill:#ffffff;fill-opacity:1;fill-rule:evenodd;stroke:#000000;stroke-dasharray:none;stroke-opacity:1"
         d="m 181,977 v 151 h 39 V 977 Z"
         id="path8" />
      <path
         style="fill:none;fill-opacity:1;fill-rule:evenodd;stroke:#000000;stroke-dasharray:none;stroke-opacity:1"
         d="M 181,977 70,1128 m 0,0 H 181 V 977 H 70 Z m 111,0 L 70,977"
         id="path8-8" />
      <path
         id="rect10"
         fill="#ffffff"
         stroke="#000000"
         d="m 181,1128 h 48 v 82 h -48 z" />
      <path
         id="rect10-2"
         style="fill:#ffffff;fill-rule:evenodd;stroke:#000000;stroke-dasharray:none"
         d="m 111,1242 h 118 v 37 H 111 Z" />
      <path
         id="rect10-5"
         style="fill:#ffffff;fill-rule:evenodd;stroke:#000000;stroke-dasharray:none"
         d="m 111,1128 h 70 v 82 h -70 z" />
      <path
         id="rect11"
         fill="#ffffff"
         stroke="#000000"
         d="m 261,977 h 83 v 302 h -83 z" />
      <path
         fill="#ffffff"
         stroke="#000000"
         id="Arena"
         d="m 344,977 v 302 h 357 v -71 h 6 V 977 Z" />
      <!-- 体育準備室 -->
      <path
         fill="#d0b0ff"
         stroke="#000000"
         id="PE_Dept_Office"
         d="m 701,1208 v 71 h 79 v -71 z" />
      <!-- トレーニングルーム -->
      <path
         fill="#d0b0ff"
         stroke="#000000"
         id="Weight_Room"
         d="m 844,1208 v 71 h 158 v -71 z" />
      <!-- 映\n写\n室 -->
      <path
         fill="#ffffff"
         stroke="#000000"
         id="Projection_Booth"
         d="m 830,1048 v 160 h 26 v -160 z" />
      <path
         style="fill:#ffffff;fill-opacity:1;fill-rule:evenodd;stroke:#000000;stroke-dasharray:none;stroke-opacity:1"
         d="m 830,1072 h -63 v 79 h -28 v 35 h 91 z"
         id="path7" />
      <!-- 保健講義室 -->
      <path
         fill="#b0d0ff"
         stroke="#000000"
         id="Health_Education_Room"
         d="m 844,977 v 71 h 158 v -71 z" />
      <!-- 智\n恵\nの\n懸\nけ\n橋 -->
      <path
         fill="#ffffff"
         stroke="#000000"
         id="The_Bridge_of_Wisdom"
         d="M 40,762 V 977 H 75 V 762 Z" />
      <!-- 知\n識\nの\n懸\nけ\n橋 -->
      <path
         fill="#ffffff"
         stroke="#000000"
         id="The_Bridge_of_Knowledge"
         d="m 793,762 v 215 h 45 V 762 Z" />
      <path
         id="____riverside2"
         style="fill:#ffffe0;fill-opacity:1;stroke:none"
         d="M 20,74 V 184 H 75 V 74 Z m 30,215 v 74 H 20 V 473 H 75 V 289 Z m 0,289 v 74 H 20 V 762 H 75 V 578 Z" />
      <path
         fill="#ffffe0"
         d="M 787,762 H 930 V 289 H 823 V 0 h -36 z"
         id="____trainside2" />
      <path
         fill="#ffffe0"
         d="M 45,184 V 289 H 81 V 184 Z m 476,0 v 105 h 51 V 184 Z M 45,473 V 578 H 81 V 473 Z m 476,0 v 105 h 51 V 473 Z"
         id="____passage2" />
      <path
         fill="#ffffe0"
         d="m 81,219 v 36 h 69 v -36 z m 375,0 v 36 h 65 v -36 z m 271,0 v 36 h 60 V 219 Z M 81,508 v 36 h 69 v -36 z"
         id="____staircases2" />
      <path
         fill="#ffffe0"
         d="m 75,578 v 184 h 361 v -62 h 180 v 62 H 787 V 578 Z"
         id="____S2" />
      <path
         fill="#ffffe0"
         d="M 75,289 V 473 H 787 V 289 Z"
         id="____C2" />
      <path
         fill="#ffffe0"
         d="M 75,0 V 184 H 787 V 0 Z"
         id="____N2" />
      <path
         fill="none"
         stroke="#000000"
         d="M 75,74 20,0 H 75 L 20,74 V 0 Z M 75,0 V 74 H 20 Z M 50,363 20,289 h 30 l -30,74 v -74 z m 0,-74 v 74 H 20 Z m 0,363 -30,-74 h 30 l -30,74 v -74 z m 0,-74 v 74 H 20 Z"
         id="____atriums2" />
      <path
         fill="none"
         stroke="#000000"
         d="m 659,578 v 74 z m 42,0 v 74 z m -21,19 v 36 z m -21,0 h 42 z m 0,3 h 42 z m 0,3 h 42 z m 0,3 h 42 z m 0,3 h 21 z m 0,3 h 42 z m 0,3 h 42 z m 0,3 h 42 z m 0,3 h 42 z m 0,3 h 42 z m 0,3 h 42 z m 0,3 h 42 z m 0,3 h 42 z m 42,-24 -21,-3 z"
         id="____staircase21" />
      <path
         fill="none"
         stroke="#000000"
         d="m 167,578 v 74 z m 42,0 v 74 z m -21,19 v 36 z m -21,0 h 42 z m 0,3 h 42 z m 0,3 h 42 z m 0,3 h 42 z m 21,3 h 21 z m -21,3 h 42 z m 0,3 h 42 z m 0,3 h 42 z m 0,3 h 42 z m 0,3 h 42 z m 0,3 h 42 z m 0,3 h 42 z m 0,3 h 42 z m 0,-24 21,-3 z"
         id="____staircase22" />
      <path
         fill="none"
         stroke="#000000"
         d="m 100,526 h 36 z m 0,-18 v 36 z m 3,0 v 36 z m 3,0 v 36 z m 3,0 v 36 z m 3,0 v 36 z m 3,0 v 36 z m 3,0 v 36 z m 3,0 v 36 z m 3,18 v 18 z m 3,-18 v 36 z m 3,0 v 36 z m 3,0 v 36 z m 3,0 v 36 z m -12,0 3,18 z"
         id="____staircase23" />
      <path
         fill="none"
         stroke="#000000"
         d="m 741,237 h 36 z m 0,-18 v 36 z m 3,0 v 36 z m 3,0 v 36 z m 3,0 v 36 z m 3,18 v 18 z m 3,-18 v 36 z m 3,0 v 36 z m 3,0 v 36 z m 3,0 v 36 z m 3,0 v 36 z m 3,0 v 36 z m 3,0 v 36 z m 3,0 v 36 z m -24,0 -3,18 z"
         id="____staircase24" />
      <path
         fill="none"
         stroke="#000000"
         d="m 470,237 h 36 z m 0,-18 v 36 z m 3,0 v 36 z m 3,0 v 36 z m 3,0 v 36 z m 3,18 v 18 z m 3,-18 v 36 z m 3,0 v 36 z m 3,0 v 36 z m 3,0 v 36 z m 3,0 v 36 z m 3,0 v 36 z m 3,0 v 36 z m 3,0 v 36 z m -24,0 -3,18 z"
         id="____staircase25" />
      <path
         fill="none"
         stroke="#000000"
         d="m 100,237 h 36 z m 0,-18 v 36 z m 3,0 v 36 z m 3,0 v 36 z m 3,0 v 36 z m 3,0 v 36 z m 3,0 v 36 z m 3,0 v 36 z m 3,0 v 36 z m 3,18 v 18 z m 3,-18 v 36 z m 3,0 v 36 z m 3,0 v 36 z m 3,0 v 36 z m -12,0 3,18 z"
         id="____staircase26" />
      <path
         fill="#ffd080"
         stroke="#000000"
         id="____veranda5"
         d="M 0,578 V 762 H 20 V 578 Z" />
      <path
         fill="#ffd080"
         stroke="#000000"
         id="____veranda4"
         d="M 0,289 V 473 H 20 V 289 Z" />
      <path
         fill="#ffd080"
         stroke="#000000"
         id="____veranda3"
         d="M 0,0 V 184 H 20 V 0 Z" />
      <path
         fill="#ffd080"
         stroke="#000000"
         id="____veranda2"
         d="m 572,214 v 45 h 20 v -45 z" />
      <path
         fill="#ffd080"
         stroke="#000000"
         id="____veranda1"
         d="m 501,503 v 45 h 20 v -45 z" />
      <!-- 吹き抜け -->
      <!-- EV -->
      <path
         fill="#ffffff"
         stroke="#000000"
         id="____EV21"
         d="m 701,615 v 37 h 29 v -37 z" />
      <!-- WC -->
      <path
         fill="#ffffff"
         stroke="#000000"
         id="____WC21"
         d="m 701,578 h 92 v 74 h -63 v -37 h -29 z" />
      <!-- WC -->
      <path
         fill="#ffffff"
         stroke="#000000"
         id="____WC22"
         d="m 75,578 h 92 v 37 h -29 v 37 H 75 Z" />
      <!-- EV -->
      <path
         fill="#ffffff"
         stroke="#000000"
         id="____EV22"
         d="m 434,110 v 37 h 29 v -37 z" />
      <!-- WC -->
      <path
         fill="#ffffff"
         stroke="#000000"
         id="____WC23"
         d="m 527,184 h -93 v -37 h 29 v -37 h 64 z" />
      <path
         fill="#d0b0ff"
         stroke="#000000"
         id="_Music_Room"
         d="m 566,399 v 74 h 135 v -74 z" />
      <!-- 大会議室 -->
      <path
         fill="#b0d0ff"
         stroke="#000000"
         id="Meeting_Room_1"
         d="m 835,289 v 147 h 95 V 289 Z" />
      <!-- 中会議室 -->
      <path
         fill="#b0d0ff"
         stroke="#000000"
         id="Meeting_Room_2"
         d="m 835,436 v 64 h 95 v -64 z" />
      <!-- スーパーアドバイザー室 -->
      <path
         fill="#b0d0ff"
         stroke="#000000"
         id="Super_Advisors_Room"
         d="m 835,500 v 78 h 95 v -78 z" />
      <!-- 特別会議室 -->
      <path
         fill="#b0d0ff"
         stroke="#000000"
         id="Round_table_Meeting_Room"
         d="m 835,578 v 74 h 95 v -74 z" />
      <!-- 小会議室 -->
      <path
         fill="#b0d0ff"
         stroke="#000000"
         id="Meeting_Room_3"
         d="m 835,652 v 36 h 95 v -36 z" />
      <path
         fill="#ffffff"
         stroke="#000000"
         id="____kyomu"
         d="m 869,688 h 61 v 74 h -51 v -37 h -44 v -19 h 34 z" />
      <path
         fill="#ffffff"
         stroke="#000000"
         id="____taika"
         d="m 835,725 v 37 h 44 v -37 z" />
      <!-- 講師職員室 -->
      <path
         fill="#d0b0ff"
         stroke="#000000"
         id="Instructors_Room"
         d="m 611,688 v 74 h 185 v -74 z" />
      <!-- 自習室2\n\n自習室1 -->
      <path
         style="fill:#d0b0ff;fill-opacity:1;stroke:#000000;stroke-opacity:1"
         d="m 347,688 v 74 h 90 v -74 z"
         id="Study_Hall_1" />
      <!-- 図書室 -->
      <path
         fill="#ffffff"
         stroke="#000000"
         stroke-width="3"
         id="Library_of_Science"
         d="m 75,688 v 92 h 272 v -92 z" />
      <path
         style="fill:#d0b0ff;fill-opacity:1;stroke:#000000;stroke-opacity:1"
         d="m 434,578 v 74 h 93 v -74 z"
         id="Study_Hall_2" />
      <!-- S21 -->
      <path
         fill="#ffb0b0"
         stroke="#000000"
         id="Room_S21"
         d="m 341,578 v 74 h 93 v -74 z" />
      <!-- 司書室\nスペース -->
      <path
         fill="#ffffff"
         stroke="#000000"
         id="____sisyosan"
         d="m 257,578 v 49 h 84 v -49 z" />
      <path
         fill="#ffffff"
         stroke="#000000"
         id="____syoko"
         d="m 209,578 v 74 h 48 v -74 z" />
      <!-- Talk\nRoom -->
      <path
         d="m 747,399 v 74 h 46 v -74 z"
         id="Talk_Room_2"
         style="fill:#d0b0ff;fill-opacity:1;stroke:#000000;stroke-opacity:1" />
      <path
         d="m 701,399 v 74 h 46 v -74 z"
         id="Talk_Room_1"
         style="fill:#d0b0ff;fill-opacity:1;stroke:#000000;stroke-opacity:1" />
      <!-- ３   ２\n情報教室\n１ -->
      <!-- C23  C22  C21 -->
      <path
         style="fill:#d0b0ff;fill-opacity:1;stroke:#000000;stroke-opacity:1"
         d="m 254,399 v 74 h 90 v -74 z"
         id="Seminar_Room_C21" />
      <path
         d="m 344,399 v 74 h 183 v -74 z"
         fill="#d0b0ff"
         stroke="#000000"
         stroke-width="3"
         id="Computer_Room_1"
         style="display:inline" />
      <path
         style="fill:#d0b0ff;fill-opacity:1;stroke:#000000;stroke-opacity:1"
         d="m 164,399 v 74 h 90 v -74 z"
         id="Seminar_Room_C22" />
      <path
         style="fill:#d0b0ff;fill-opacity:1;stroke:#000000;stroke-opacity:1"
         d="m 75,399 v 74 h 89 v -74 z"
         id="Seminar_Room_C23" />
      <path
         fill="#ffffff"
         stroke="#000000"
         id="____denki"
         d="m 611,289 v 74 h 182 v -74 z" />
      <path
         d="m 434,289 v 74 h 93 v -74 z"
         id="Computer_Room_2"
         style="fill:#d0b0ff;fill-opacity:1;stroke:#000000;stroke-opacity:1" />
      <path
         d="m 344,289 v 74 h 90 v -74 z"
         id="Computer_Room_3"
         style="fill:#d0b0ff;fill-opacity:1;stroke:#000000;stroke-opacity:1" />
      <path
         fill="#ffffff"
         stroke="#000000"
         id="____souko2"
         d="m 299,289 v 74 h 45 v -74 z" />
      <path
         fill="#ffe0b0"
         stroke="#000000"
         id="Information_Technology_Dept_Office"
         d="m 254,289 v 74 h 45 v -74 z" />
      <!-- プログラミング\n実習室 -->
      <path
         fill="#ffe0b0"
         stroke="#000000"
         id="Programming_Lab"
         d="m 75,289 v 74 h 89 v -74 z m 89,0 v 74 h 90 v -74 z" />
      <!-- #4    #3\nCALL教室\n#2    #1 -->
      <path
         d="m 704,110 v 74 h 89 v -74 z"
         id="CALL_1"
         style="fill:#d0b0ff;fill-opacity:1;stroke:#000000;stroke-opacity:1" />
      <path
         d="m 611,110 v 74 h 93 v -74 z"
         id="CALL_2"
         style="fill:#d0b0ff;fill-opacity:1;stroke:#000000;stroke-opacity:1" />
      <!-- ハード\nウェア\n実習室 -->
      <path
         fill="#ffe0b0"
         stroke="#000000"
         id="PC_Hardware_Lab"
         d="m 299,110 v 74 h 135 v -74 z m 90,0 v 74 z" />
      <!-- マルチ\nメディア\n実習室 -->
      <path
         fill="#ffe0b0"
         stroke="#000000"
         id="Multimedia_Lab"
         d="m 164,110 v 74 h 135 v -74 z" />
      <path
         d="m 75,110 v 74 h 89 v -74 z"
         id="Seminar_Room_N21"
         style="fill:#d0b0ff;fill-opacity:1;stroke:#000000;stroke-opacity:1" />
      <path
         d="m 704,0 v 74 h 89 V 0 Z"
         id="CALL_3"
         style="fill:#d0b0ff;fill-opacity:1;stroke:#000000;stroke-opacity:1" />
      <path
         d="m 614,0 v 74 h 90 V 0 Z"
         id="CALL_4"
         style="fill:#d0b0ff;fill-opacity:1;stroke:#000000;stroke-opacity:1" />
      <!-- N22\n\n\nN21 -->
      <!-- プレゼンテーション\nスタジオ -->
      <path
         fill="#d0b0ff"
         stroke="#000000"
         id="Presentation_Studio"
         d="M 299,0 V 74 H 614 V 0 Z m 135,0 v 74 h 45 V 0 Z" />
      <!-- 情報基礎\n実習室 -->
      <path
         fill="#ffe0b0"
         stroke="#000000"
         id="IT_Foundation_Lab"
         d="M 164,0 V 74 H 299 V 0 Z" />
      <path
         d="m 75,0 v 74 h 89 V 0 Z"
         id="Seminar_Room_N22"
         style="fill:#d0b0ff;fill-opacity:1;stroke:#000000;stroke-opacity:1" />
      <path
         fill="none"
         stroke="#000000"
         d="m 81,184 h 440 v 35 h -65 v 36 h 65 v 34 H 81 v -34 h 69 V 219 H 81 Z m 491,0 h 215 v 35 h -60 v 36 h 60 v 34 H 572 Z M 81,473 H 521 V 578 H 81 v -34 h 69 V 508 H 81 Z m 491,0 V 578 H 787 V 473 Z"
         id="____inner2" />
      <path
         fill="none"
         stroke="#000000"
         d="M 20,0 H 823 V 289 H 930 V 762 H 611 V 700 H 437 v 62 h -90 v 18 H 75 V 762 H 20 V 578 H 45 V 473 H 20 V 289 H 45 V 184 H 20 Z"
         id="____outer2" />
      <path
         id="____backyard21"
         style="fill:url(#backyard);fill-rule:evenodd;stroke-width:0;stroke-linecap:square;stroke-linejoin:round;stroke-miterlimit:0;paint-order:markers stroke fill"
         d="M 20,0 H 823 V 289 H 930 V 762 H 835 V 652 h -42 v -74 h -6 V 473 H 566 v -74 h 45 V 289 h 176 v -34 h -60 v -36 h 60 V 184 H 20 Z"
         class="UnoptimicedTransforms" />
    </g>
  </g>
</svg>
