<?xml version="1.0" encoding="UTF-8" standalone="no"?>
<svg
   width="1094"
   height="1281.4"
   version="1.1"
   id="svg282"
   viewBox="0 0 1094 1281.4"
   xmlns="http://www.w3.org/2000/svg"
   xmlns:svg="http://www.w3.org/2000/svg">
  <defs
     id="defs1">
    <pattern
       id="backyard"
       patternUnits="userSpaceOnUse"
       width="20"
       height="20"
       patternTransform="rotate(30)">
      <rect
         width="20"
         height="20"
         fill="gray"
         fill-opacity="0.75"
         id="backyard_bg" />
      <rect
         x="0"
         y="0"
         width="10"
         height="20"
         fill="black"
         id="backyard_shade" />
    </pattern>
  </defs>
  <!-- 1階 -->
  <g
     id="floor_2"
     style="display:inline"
     transform="translate(0.5,1.8999995)">
    <g
       transform="translate(20)"
       id="bg2">
      <!-- 2階 -->
      <path
         fill="#e0ffff"
         stroke="#000000"
         stroke-width="1px"
         d="m 12,977 v 302 H 1069 V 977 Z"
         id="path79" />
      <!-- リバービュー\nラウンジ -->
      <path
         id="rect1-8"
         style="fill:#ffffff;fill-rule:evenodd;stroke:#000000;stroke-width:1;stroke-miterlimit:4"
         d="m 719,1128 h 28 v 23 h -28 z" />
      <path
         fill="#ffffff"
         stroke="#000000"
         stroke-width="1px"
         id="____riverviewlounge2"
         d="m 12,1128 v 151 h 79 v -151 z" />
      <!-- アリーナ -->
      <path
         fill="#ffffff"
         stroke="#000000"
         stroke-width="1px"
         id="Arena"
         d="m 324,977 v 302 H 684 V 977 Z" />
      <!-- 体育準備室 -->
      <path
         fill="#d0b0ff"
         stroke="#000000"
         stroke-width="1px"
         id="PE_Dept_Office"
         d="m 684,1208 v 71 h 86 v -71 z" />
      <!-- トレーニングルーム -->
      <path
         fill="#d0b0ff"
         stroke="#000000"
         stroke-width="1px"
         id="Weight_Room"
         d="m 824,1208 v 71 h 158 v -71 z" />
      <!-- 映\n写\n室 -->
      <path
         fill="#ffffff"
         stroke="#000000"
         stroke-width="1px"
         id="Projection_Booth"
         d="m 806,1048 v 160 h 30 v -160 z" />
      <!-- 保健講義室 -->
      <path
         fill="#b0d0ff"
         stroke="#000000"
         stroke-width="1px"
         id="Health_Education_Room"
         d="m 824,977 v 71 h 158 v -71 z" />
      <!-- 智\n恵\nの\n懸\nけ\n橋 -->
      <path
         fill="#ffffff"
         stroke="#000000"
         stroke-width="1px"
         id="The_Bridge_of_Wisdom"
         d="M 20,762 V 977 H 55 V 762 Z" />
      <!-- 知\n識\nの\n懸\nけ\n橋 -->
      <path
         fill="#ffffff"
         stroke="#000000"
         stroke-width="1px"
         id="The_Bridge_of_Knowledge"
         d="m 773,762 v 215 h 45 V 762 Z" />
      <path
         id="____riverside2"
         style="fill:#ffffe0;fill-opacity:1;stroke:none"
         d="M 0,74 V 184 H 55 V 74 Z m 30,215 v 74 H 0 V 473 H 55 V 289 Z m 0,289 v 74 H 0 V 762 H 55 V 578 Z" />
      <path
         fill="#ffffe0"
         d="M 767,762 H 910 V 289 H 806 V 0 h -39 z"
         id="____trainside2" />
      <path
         fill="#ffffe0"
         d="M 25,184 V 289 H 61 V 184 Z m 476,0 v 105 h 51 V 184 Z M 25,473 V 578 H 61 V 473 Z m 476,0 v 105 h 51 V 473 Z"
         id="____passage2" />
      <path
         fill="#ffffe0"
         d="m 61,219 v 36 h 69 v -36 z m 375,0 v 36 h 65 v -36 z m 271,0 v 36 h 60 V 219 Z M 61,508 v 36 h 69 v -36 z"
         id="____staircases2" />
      <path
         fill="#ffffe0"
         d="m 55,578 v 184 h 361 v -62 h 180 v 62 H 767 V 578 Z"
         id="____S2" />
      <path
         fill="#ffffe0"
         d="M 55,289 V 473 H 767 V 289 Z"
         id="____C2" />
      <path
         fill="#ffffe0"
         d="M 55,0 V 184 H 767 V 0 Z"
         id="____N2" />
      <path
         fill="none"
         stroke="#000000"
         stroke-width="1px"
         d="M 55,74 0,0 H 55 L 0,74 V 0 Z M 55,0 V 74 H 0 Z M 30,363 0,289 H 30 L 0,363 v -74 z m 0,-74 v 74 H 0 Z M 30,652 0,578 H 30 L 0,652 v -74 z m 0,-74 v 74 H 0 Z"
         id="____atriums2" />
      <path
         fill="none"
         stroke="#000000"
         stroke-width="1px"
         d="m 639,578 v 74 z m 42,0 v 74 z m -21,19 v 36 z m -21,0 h 42 z m 0,3 h 42 z m 0,3 h 42 z m 0,3 h 42 z m 0,3 h 21 z m 0,3 h 42 z m 0,3 h 42 z m 0,3 h 42 z m 0,3 h 42 z m 0,3 h 42 z m 0,3 h 42 z m 0,3 h 42 z m 0,3 h 42 z m 42,-24 -21,-3 z"
         id="____staircase21" />
      <path
         fill="none"
         stroke="#000000"
         stroke-width="1px"
         d="m 147,578 v 74 z m 42,0 v 74 z m -21,19 v 36 z m -21,0 h 42 z m 0,3 h 42 z m 0,3 h 42 z m 0,3 h 42 z m 21,3 h 21 z m -21,3 h 42 z m 0,3 h 42 z m 0,3 h 42 z m 0,3 h 42 z m 0,3 h 42 z m 0,3 h 42 z m 0,3 h 42 z m 0,3 h 42 z m 0,-24 21,-3 z"
         id="____staircase22" />
      <path
         fill="none"
         stroke="#000000"
         stroke-width="1px"
         d="m 80,526 h 36 z m 0,-18 v 36 z m 3,0 v 36 z m 3,0 v 36 z m 3,0 v 36 z m 3,0 v 36 z m 3,0 v 36 z m 3,0 v 36 z m 3,0 v 36 z m 3,18 v 18 z m 3,-18 v 36 z m 3,0 v 36 z m 3,0 v 36 z m 3,0 v 36 z m -12,0 3,18 z"
         id="____staircase23" />
      <path
         fill="none"
         stroke="#000000"
         stroke-width="1px"
         d="m 721,237 h 36 z m 0,-18 v 36 z m 3,0 v 36 z m 3,0 v 36 z m 3,0 v 36 z m 3,18 v 18 z m 3,-18 v 36 z m 3,0 v 36 z m 3,0 v 36 z m 3,0 v 36 z m 3,0 v 36 z m 3,0 v 36 z m 3,0 v 36 z m 3,0 v 36 z m -24,0 -3,18 z"
         id="____staircase24" />
      <path
         fill="none"
         stroke="#000000"
         stroke-width="1px"
         d="m 450,237 h 36 z m 0,-18 v 36 z m 3,0 v 36 z m 3,0 v 36 z m 3,0 v 36 z m 3,18 v 18 z m 3,-18 v 36 z m 3,0 v 36 z m 3,0 v 36 z m 3,0 v 36 z m 3,0 v 36 z m 3,0 v 36 z m 3,0 v 36 z m 3,0 v 36 z m -24,0 -3,18 z"
         id="____staircase25" />
      <path
         fill="none"
         stroke="#000000"
         stroke-width="1px"
         d="m 80,237 h 36 z m 0,-18 v 36 z m 3,0 v 36 z m 3,0 v 36 z m 3,0 v 36 z m 3,0 v 36 z m 3,0 v 36 z m 3,0 v 36 z m 3,0 v 36 z m 3,18 v 18 z m 3,-18 v 36 z m 3,0 v 36 z m 3,0 v 36 z m 3,0 v 36 z m -12,0 3,18 z"
         id="____staircase26" />
      <path
         fill="#ffd080"
         stroke="#000000"
         stroke-width="1px"
         id="____veranda5"
         d="M -20,578 V 762 H 0 V 578 Z" />
      <path
         fill="#ffd080"
         stroke="#000000"
         stroke-width="1px"
         id="____veranda4"
         d="M -20,289 V 473 H 0 V 289 Z" />
      <path
         fill="#ffd080"
         stroke="#000000"
         stroke-width="1px"
         id="____veranda3"
         d="M -20,0 V 184 H 0 V 0 Z" />
      <path
         fill="#ffd080"
         stroke="#000000"
         stroke-width="1px"
         id="____veranda2"
         d="m 552,214 v 45 h 20 v -45 z" />
      <path
         fill="#ffd080"
         stroke="#000000"
         stroke-width="1px"
         id="____veranda1"
         d="m 481,503 v 45 h 20 v -45 z" />
      <!-- 吹き抜け -->
      <!-- EV -->
      <path
         fill="#ffffff"
         stroke="#000000"
         stroke-width="1px"
         id="____EV21"
         d="m 681,615 v 37 h 29 v -37 z" />
      <!-- WC -->
      <path
         fill="#ffffff"
         stroke="#000000"
         stroke-width="1px"
         id="____WC21"
         d="m 681,578 h 92 v 74 h -63 v -37 h -29 z" />
      <!-- WC -->
      <path
         fill="#ffffff"
         stroke="#000000"
         stroke-width="1px"
         id="____WC22"
         d="m 55,578 h 92 v 37 h -29 v 37 H 55 Z" />
      <!-- EV -->
      <path
         fill="#ffffff"
         stroke="#000000"
         stroke-width="1px"
         id="____EV22"
         d="m 414,110 v 37 h 29 v -37 z" />
      <!-- WC -->
      <path
         fill="#ffffff"
         stroke="#000000"
         stroke-width="1px"
         id="____WC23"
         d="m 507,184 h -93 v -37 h 29 v -37 h 64 z" />
      <path
         fill="#d0b0ff"
         stroke="#000000"
         stroke-width="1px"
         id="_Music_Room"
         d="m 546,399 v 74 h 135 v -74 z" />
      <!-- 大会議室 -->
      <path
         fill="#b0d0ff"
         stroke="#000000"
         stroke-width="1px"
         id="Meeting_Room_1"
         d="m 815,289 v 147 h 95 V 289 Z" />
      <!-- 中会議室 -->
      <path
         fill="#b0d0ff"
         stroke="#000000"
         stroke-width="1px"
         id="Meeting_Room_2"
         d="m 815,436 v 64 h 95 v -64 z" />
      <!-- スーパーアドバイザー室 -->
      <path
         fill="#b0d0ff"
         stroke="#000000"
         stroke-width="1px"
         id="Super_Advisors_Room"
         d="m 815,500 v 78 h 95 v -78 z" />
      <!-- 特別会議室 -->
      <path
         fill="#b0d0ff"
         stroke="#000000"
         stroke-width="1px"
         id="Round_table_Meeting_Room"
         d="m 815,578 v 74 h 95 v -74 z" />
      <!-- 小会議室 -->
      <path
         fill="#b0d0ff"
         stroke="#000000"
         stroke-width="1px"
         id="Meeting_Room_3"
         d="m 815,652 v 36 h 95 v -36 z" />
      <path
         fill="#ffffff"
         stroke="#000000"
         stroke-width="1px"
         id="____kyomu"
         d="m 849,688 h 61 v 74 h -51 v -37 h -44 v -19 h 34 z" />
      <path
         fill="#ffffff"
         stroke="#000000"
         stroke-width="1px"
         id="____taika"
         d="m 815,725 v 37 h 44 v -37 z" />
      <!-- 講師職員室 -->
      <path
         fill="#d0b0ff"
         stroke="#000000"
         stroke-width="1px"
         id="Instructors_Room"
         d="m 591,688 v 74 h 185 v -74 z" />
      <!-- 自習室2\n\n自習室1 -->
      <path
         style="fill:#d0b0ff;fill-opacity:1;stroke:#000000;stroke-opacity:1"
         d="m 327,688 v 74 h 90 v -74 z"
         id="Study_Hall_1" />
      <!-- 図書室 -->
      <path
         fill="#ffffff"
         stroke="#000000"
         stroke-width="1px"
         id="Library_of_Science"
         d="m 55,688 v 92 h 272 v -92 z" />
      <path
         style="fill:#d0b0ff;fill-opacity:1;stroke:#000000;stroke-opacity:1"
         d="m 414,578 v 74 h 93 v -74 z"
         id="Study_Hall_2" />
      <!-- S21 -->
      <path
         fill="#ffb0b0"
         stroke="#000000"
         stroke-width="1px"
         id="Room_S21"
         d="m 321,578 v 74 h 93 v -74 z" />
      <!-- 司書室\nスペース -->
      <path
         fill="#ffffff"
         stroke="#000000"
         stroke-width="1px"
         id="____sisyosan"
         d="m 237,578 v 49 h 84 v -49 z" />
      <path
         fill="#ffffff"
         stroke="#000000"
         stroke-width="1px"
         id="____syoko"
         d="m 189,578 v 74 h 48 v -74 z" />
      <!-- Talk\nRoom -->
      <path
         d="m 727,399 v 74 h 46 v -74 z"
         id="Talk_Room_2"
         style="fill:#d0b0ff;fill-opacity:1;stroke:#000000;stroke-opacity:1" />
      <path
         d="m 681,399 v 74 h 46 v -74 z"
         id="Talk_Room_1"
         style="fill:#d0b0ff;fill-opacity:1;stroke:#000000;stroke-opacity:1" />
      <!-- ３   ２\n情報教室\n１ -->
      <path
         d="m 324,399 v 74 h 183 v -74 z"
         id="Computer_Room_1"
         style="fill:#d0b0ff;fill-opacity:1;stroke:#000000;stroke-opacity:1" />
      <!-- C23  C22  C21 -->
      <path
         style="fill:#d0b0ff;fill-opacity:1;stroke:#000000;stroke-opacity:1"
         d="m 234,399 v 74 h 90 v -74 z"
         id="Seminar_Room_C21" />
      <path
         style="fill:#d0b0ff;fill-opacity:1;stroke:#000000;stroke-opacity:1"
         d="m 144,399 v 74 h 90 v -74 z"
         id="Seminar_Room_C22" />
      <path
         style="fill:#d0b0ff;fill-opacity:1;stroke:#000000;stroke-opacity:1"
         d="m 55,399 v 74 h 89 v -74 z"
         id="Seminar_Room_C23" />
      <path
         fill="#ffffff"
         stroke="#000000"
         stroke-width="1px"
         id="____denki"
         d="m 591,289 v 74 h 182 v -74 z" />
      <path
         d="m 414,289 v 74 h 93 v -74 z"
         id="Computer_Room_2"
         style="fill:#d0b0ff;fill-opacity:1;stroke:#000000;stroke-opacity:1" />
      <path
         d="m 324,289 v 74 h 90 v -74 z"
         id="Computer_Room_3"
         style="fill:#d0b0ff;fill-opacity:1;stroke:#000000;stroke-opacity:1" />
      <path
         fill="#ffffff"
         stroke="#000000"
         stroke-width="1px"
         id="____souko2"
         d="m 279,289 v 74 h 45 v -74 z" />
      <path
         fill="#ffe0b0"
         stroke="#000000"
         stroke-width="1px"
         id="Information_Technology_Dept_Office"
         d="m 234,289 v 74 h 45 v -74 z" />
      <!-- プログラミング\n実習室 -->
      <path
         fill="#ffe0b0"
         stroke="#000000"
         stroke-width="1px"
         id="Programming_Lab"
         d="m 55,289 v 74 h 89 v -74 z m 89,0 v 74 h 90 v -74 z" />
      <!-- #4    #3\nCALL教室\n#2    #1 -->
      <path
         d="m 684,110 v 74 h 89 v -74 z"
         id="CALL_1"
         style="fill:#d0b0ff;fill-opacity:1;stroke:#000000;stroke-opacity:1" />
      <path
         d="m 591,110 v 74 h 93 v -74 z"
         id="CALL_2"
         style="fill:#d0b0ff;fill-opacity:1;stroke:#000000;stroke-opacity:1" />
      <!-- ハード\nウェア\n実習室 -->
      <path
         fill="#ffe0b0"
         stroke="#000000"
         stroke-width="1px"
         id="PC_Hardware_Lab"
         d="m 279,110 v 74 h 135 v -74 z m 90,0 v 74 z" />
      <!-- マルチ\nメディア\n実習室 -->
      <path
         fill="#ffe0b0"
         stroke="#000000"
         stroke-width="1px"
         id="Multimedia_Lab"
         d="m 144,110 v 74 h 135 v -74 z" />
      <path
         d="m 55,110 v 74 h 89 v -74 z"
         id="Seminar_Room_N21"
         style="fill:#d0b0ff;fill-opacity:1;stroke:#000000;stroke-opacity:1" />
      <path
         d="m 684,0 v 74 h 89 V 0 Z"
         id="CALL_3"
         style="fill:#d0b0ff;fill-opacity:1;stroke:#000000;stroke-opacity:1" />
      <path
         d="m 594,0 v 74 h 90 V 0 Z"
         id="CALL_4"
         style="fill:#d0b0ff;fill-opacity:1;stroke:#000000;stroke-opacity:1" />
      <!-- N22\n\n\nN21 -->
      <!-- プレゼンテーション\nスタジオ -->
      <path
         fill="#d0b0ff"
         stroke="#000000"
         stroke-width="1px"
         id="Presentation_Studio"
         d="M 279,0 V 74 H 594 V 0 Z m 135,0 v 74 h 45 V 0 Z" />
      <!-- 情報基礎\n実習室 -->
      <path
         fill="#ffe0b0"
         stroke="#000000"
         stroke-width="1px"
         id="IT_Foundation_Lab"
         d="M 144,0 V 74 H 279 V 0 Z" />
      <path
         d="m 55,0 v 74 h 89 V 0 Z"
         id="Seminar_Room_N22"
         style="fill:#d0b0ff;fill-opacity:1;stroke:#000000;stroke-opacity:1" />
      <path
         fill="none"
         stroke="#000000"
         stroke-width="1px"
         d="m 61,184 h 440 v 35 h -65 v 36 h 65 v 34 H 61 v -34 h 69 V 219 H 61 Z m 491,0 h 215 v 35 h -60 v 36 h 60 v 34 H 552 Z M 61,473 H 501 V 578 H 61 v -34 h 69 V 508 H 61 Z m 491,0 V 578 H 767 V 473 Z"
         id="____inner2" />
      <path
         fill="none"
         stroke="#000000"
         stroke-width="1px"
         d="M 0,0 H 806 V 289 H 910 V 762 H 591 V 700 H 417 v 62 h -90 v 18 H 55 V 762 H 0 V 578 H 25 V 473 H 0 V 289 H 25 V 184 H 0 Z"
         id="____outer2" />
      <path
         id="____backyard21"
         style="display:inline;fill:url(#backyard);fill-rule:evenodd;stroke-width:0;stroke-linecap:square;stroke-linejoin:round;stroke-miterlimit:0;paint-order:markers stroke fill"
         d="M 60,0 H 866 V 289 H 970 V 762 H 875 V 652 h -42 v -74 h -6 V 473 H 606 v -74 h 45 V 289 h 176 v -34 h -60 v -36 h 60 V 184 H 60 Z"
         class="UnoptimicedTransforms"
         transform="translate(-60)" />
    </g>
  </g>
</svg>
