<?xml version="1.0" encoding="UTF-8" standalone="no"?>
<svg
   width="1087"
   height="1279"
   version="1.1"
   id="svg282"
   viewBox="0 0 1087 1279"
   xmlns:xlink="http://www.w3.org/1999/xlink"
   xmlns="http://www.w3.org/2000/svg"
   xmlns:svg="http://www.w3.org/2000/svg">
  <defs
     id="defs1">
    <pattern
       xlink:href="#backyard"
       id="pattern1"
       patternTransform="rotate(30,-20,-74.641016)" />
    <pattern
       id="backyard"
       patternUnits="userSpaceOnUse"
       width="20"
       height="20"
       patternTransform="rotate(30)">
      <rect
         id="backyard_bg"
         width="20"
         height="20"
         fill="gray"
         fill-opacity="0.75" />
      <rect
         id="backyard_shade"
         x="0"
         y="0"
         width="10"
         height="20"
         fill="black" />
    </pattern>
  </defs>
  <!-- 1階 -->
  <g
     id="floor_3"
     style="display:inline">
    <g
       id="bg3">
      <!-- 3階 -->
      <path
         fill="#e0ffff"
         stroke="#000000"
         d="m 36,977 v 302 H 1087 V 977 Z"
         id="path161" />
      <!-- プール -->
      <path
         fill="#ffffff"
         stroke="#000000"
         id="____pool"
         d="m 36,977 v 302 H 270 V 977 Z" />
      <path
         id="____riverside3"
         style="fill:#ffffe0;fill-opacity:1;stroke:none"
         d="M 20,74 V 184 H 75 V 74 Z m 30,215 v 74 H 20 V 473 H 75 V 289 Z m 0,289 v 74 H 20 V 762 H 75 V 578 Z" />
      <path
         fill="#ffffe0"
         d="M 787,762 H 930 V 289 H 823 V 0 h -36 z"
         id="____trainside3" />
      <path
         fill="#ffffe0"
         d="M 45,184 V 289 H 81 V 184 Z m 476,0 v 105 h 51 V 184 Z M 45,473 V 578 H 81 V 473 Z m 476,0 v 105 h 51 V 473 Z"
         id="____passage3" />
      <path
         fill="#ffffe0"
         d="m 81,255 h 19 v -18 h 50 V 219 H 81 Z m 440,-36 h -65 v 18 h 50 v 18 h 15 z m 206,0 v 36 h 60 V 219 Z M 81,508 v 36 h 69 v -36 z"
         id="____staircases3" />
      <path
         fill="#ffffe0"
         d="M 75,578 V 762 H 787 V 578 Z"
         id="____S3" />
      <path
         fill="#ffffe0"
         d="M 75,289 V 473 H 787 V 289 Z"
         id="____C3" />
      <path
         fill="#ffffe0"
         d="M 75,0 V 184 H 787 V 0 Z"
         id="____N3" />
      <path
         fill="none"
         stroke="#000000"
         d="M 75,74 20,0 H 75 L 20,74 V 0 Z M 75,0 V 74 H 20 Z M 50,363 20,289 h 30 l -30,74 v -74 z m 0,-74 v 74 H 20 Z m 0,363 -30,-74 h 30 l -30,74 v -74 z m 0,-74 v 74 H 20 Z"
         id="____atriums3" />
      <path
         fill="none"
         stroke="#000000"
         d="m 659,578 v 74 z m 42,0 v 74 z m -21,19 v 36 z m -21,0 h 42 z m 0,3 h 42 z m 0,3 h 42 z m 0,3 h 42 z m 0,3 h 21 z m 0,3 h 42 z m 0,3 h 42 z m 0,3 h 42 z m 0,3 h 42 z m 0,3 h 42 z m 0,3 h 42 z m 0,3 h 42 z m 0,3 h 42 z m 42,-24 -21,-3 z"
         id="____staircase31" />
      <path
         fill="none"
         stroke="#000000"
         d="m 167,578 v 74 z m 42,0 v 74 z m -21,19 v 36 z m -21,0 h 42 z m 0,3 h 42 z m 0,3 h 42 z m 0,3 h 42 z m 21,3 h 21 z m -21,3 h 42 z m 0,3 h 42 z m 0,3 h 42 z m 0,3 h 42 z m 0,3 h 42 z m 0,3 h 42 z m 0,3 h 42 z m 0,3 h 42 z m 0,-24 21,-3 z"
         id="____staircase32" />
      <path
         fill="none"
         stroke="#000000"
         d="m 100,526 h 36 z m 0,-18 v 36 z m 3,0 v 36 z m 3,0 v 36 z m 3,0 v 36 z m 3,0 v 36 z m 3,0 v 36 z m 3,0 v 36 z m 3,0 v 36 z m 3,18 v 18 z m 3,-18 v 36 z m 3,0 v 36 z m 3,0 v 36 z m 3,0 v 36 z m -12,0 3,18 z"
         id="____staircase33" />
      <path
         fill="none"
         stroke="#000000"
         d="m 741,237 h 36 z m 0,-18 v 36 z m 3,0 v 36 z m 3,0 v 36 z m 3,0 v 36 z m 3,18 v 18 z m 3,-18 v 36 z m 3,0 v 36 z m 3,0 v 36 z m 3,0 v 36 z m 3,0 v 36 z m 3,0 v 36 z m 3,0 v 36 z m 3,0 v 36 z m -24,0 -3,18 z"
         id="____staircase34" />
      <path
         fill="none"
         stroke="#000000"
         d="m 456,237 h 50 z m 29,-18 v 18 z m 3,0 v 18 z m 3,0 v 18 z m 3,0 v 18 z m 3,0 v 18 z m 3,0 v 18 z m 3,0 v 18 z m 3,0 v 36 z m -24,0 -3,18 z"
         id="____staircase35" />
      <path
         fill="none"
         stroke="#000000"
         d="m 100,237 h 50 z m 0,-18 v 36 z m 3,0 v 18 z m 3,0 v 18 z m 3,0 v 18 z m 3,0 v 18 z m 3,0 v 18 z m 3,0 v 18 z m 3,0 v 18 z m 3,18 z m 0,-18 3,18 z"
         id="____staircase36" />
      <path
         fill="#ffd080"
         stroke="#000000"
         id="____veranda10"
         d="M 0,578 V 762 H 20 V 578 Z" />
      <path
         fill="#ffd080"
         stroke="#000000"
         id="____veranda9"
         d="M 0,289 V 473 H 20 V 289 Z" />
      <path
         fill="#ffd080"
         stroke="#000000"
         id="____veranda8"
         d="M 0,0 V 184 H 20 V 0 Z" />
      <path
         fill="#ffd080"
         stroke="#000000"
         id="____veranda7"
         d="m 572,214 v 45 h 20 v -45 z" />
      <path
         fill="#ffd080"
         stroke="#000000"
         id="____veranda6"
         d="m 501,503 v 45 h 20 v -45 z" />
      <!-- EV -->
      <path
         fill="#ffffff"
         stroke="#000000"
         id="____EV31"
         d="m 701,615 v 37 h 29 v -37 z" />
      <!-- WC -->
      <path
         fill="#ffffff"
         stroke="#000000"
         id="____WC31"
         d="m 701,578 h 92 v 74 h -63 v -37 h -29 z" />
      <!-- WC -->
      <path
         fill="#ffffff"
         stroke="#000000"
         id="____WC32"
         d="m 75,578 h 92 v 37 h -29 v 37 H 75 Z" />
      <!-- EV -->
      <path
         fill="#ffffff"
         stroke="#000000"
         id="____EV32"
         d="m 434,110 v 37 h 29 v -37 z" />
      <!-- WC -->
      <path
         fill="#ffffff"
         stroke="#000000"
         id="____WC33"
         d="m 527,184 h -93 v -37 h 29 v -37 h 64 z" />
      <!-- 生徒会室 -->
      <path
         fill="#b0d0ff"
         stroke="#000000"
         id="Student_Council_Room"
         d="m 838,289 v 74 h 92 v -74 z" />
      <!-- 進路相談室 -->
      <path
         fill="#b0d0ff"
         stroke="#000000"
         id="Students_Guidance_Dept_Office"
         d="m 838,363 v 73 h 92 v -73 z" />
      <!-- 進路学習室 -->
      <path
         fill="#b0d0ff"
         stroke="#000000"
         id="Students_Guidance_Room"
         d="m 838,436 v 142 h 92 V 436 Z" />
      <path
         fill="#ffffff"
         stroke="#000000"
         id="____souko3"
         d="m 838,578 v 37 h 92 v -37 z" />
      <!-- PTA室 -->
      <path
         fill="#b0d0ff"
         stroke="#000000"
         id="PTA_Room"
         d="m 838,615 v 73 h 92 v -73 z" />
      <!-- 同窓会室 -->
      <path
         fill="#b0d0ff"
         stroke="#000000"
         id="Alumni_Association_Room"
         d="m 838,688 v 74 h 92 v -74 z" />
      <!-- S32  S31 -->
      <path
         fill="#ffb0b0"
         stroke="#000000"
         id="Room_S31"
         d="m 704,688 v 74 h 89 v -74 z" />
      <path
         fill="#ffb0b0"
         stroke="#000000"
         id="Room_S32"
         d="m 614,688 v 74 h 90 v -74 z" />
      <path
         fill="#ffb0b0"
         stroke="#000000"
         id="Room_S33"
         d="m 524,688 v 74 h 90 v -74 z" />
      <path
         fill="#ffb0b0"
         stroke="#000000"
         id="Room_S34"
         d="m 434,688 v 74 h 90 v -74 z" />
      <path
         fill="#ffb0b0"
         stroke="#000000"
         id="Room_S35"
         d="m 344,688 v 74 h 90 v -74 z" />
      <path
         fill="#ffb0b0"
         stroke="#000000"
         id="Room_S36"
         d="m 254,688 v 74 h 90 v -74 z" />
      <path
         fill="#ffb0b0"
         stroke="#000000"
         id="Room_S37"
         d="m 164,688 v 74 h 90 v -74 z" />
      <path
         fill="#ffb0b0"
         stroke="#000000"
         id="Room_S38"
         d="m 75,688 v 74 h 89 v -74 z" />
      <!-- S35  S34  S33 -->
      <!-- S38  S37  S36 -->
      <!-- レクチャールーム -->
      <path
         d="m 437,578 v 74 h 90 v -74 z"
         id="Lecture_Room_1"
         style="fill:#b0d0ff;fill-opacity:1;stroke:#000000;stroke-opacity:1" />
      <path
         d="m 347,578 v 74 h 90 v -74 z"
         id="Lecture_Room_2"
         style="fill:#b0d0ff;fill-opacity:1;stroke:#000000;stroke-opacity:1" />
      <path
         fill="#ffffff"
         stroke="#000000"
         id="____souko4"
         d="m 299,578 v 74 h 48 v -74 z" />
      <!-- 暗\n室 -->
      <path
         fill="#b0d0ff"
         stroke="#000000"
         id="Dark_Room"
         d="m 747,399 v 74 h 46 v -74 z" />
      <!-- 地学実験室 -->
      <path
         fill="#b0d0ff"
         stroke="#000000"
         id="Earth_Science_Lab"
         d="m 566,399 v 74 h 181 v -74 z m 137,0 v 74 z" />
      <!-- 課題研究室 -->
      <path
         fill="#b0ffb0"
         stroke="#000000"
         id="Science_Research_Lab"
         d="m 344,399 v 74 h 183 v -74 z" />
      <!-- 生命科学\n実験室 -->
      <path
         fill="#b0ffb0"
         stroke="#000000"
         id="Life_Science_Lab"
         d="m 164,399 v 74 h 180 v -74 z m 135,0 v 74 z" />
      <!-- C32\n\n\nC31 -->
      <path
         d="m 75,399 v 74 h 89 v -74 z"
         id="Room_C31"
         style="fill:#d0b0ff;fill-opacity:1;stroke:#000000;stroke-opacity:1" />
      <!-- 物理実験室 -->
      <path
         fill="#b0d0ff"
         stroke="#000000"
         id="Physics_Lab"
         d="m 611,289 v 74 h 182 v -74 z m 136,0 v 74 z" />
      <!-- ２ 生物実験室 １ -->
      <path
         fill="#b0d0ff"
         stroke="#000000"
         id="Biology_Lab"
         d="m 209,289 v 74 h 318 v -74 z m 135,0 v 74 h 45 v -74 z" />
      <path
         fill="#ffffff"
         stroke="#000000"
         id="____souko6"
         d="m 164,289 v 74 h 45 v -74 z" />
      <path
         d="m 75,289 v 74 h 89 v -74 z"
         id="Room_C32"
         style="fill:#d0b0ff;fill-opacity:1;stroke:#000000;stroke-opacity:1" />
      <path
         fill="#ffffff"
         stroke="#000000"
         id="____souko7"
         d="m 747,110 v 74 h 46 v -74 z" />
      <!-- 化学\n実験室 -->
      <path
         d="m 611,110 v 74 h 136 v -74 z"
         id="Chemistry_Lab_1"
         style="fill:#b0d0ff;fill-opacity:1;stroke:#000000;stroke-opacity:1" />
      <!-- 低温\n実験室\n  -->
      <path
         fill="#d0b0ff"
         stroke="#000000"
         id="Low_temperature_Lab"
         d="m 385,32 v 42 h 52 V 32 Z" />
      <!-- 環境生命\n実験室 -->
      <path
         fill="#b0ffb0"
         stroke="#000000"
         id="Environmental_Biosciences_Lab"
         d="m 251,32 h 134 v 42 h 52 v 36 h -3 v 74 h -29 v 21 H 370 V 184 H 254 v -74 h -3 z m 29,53 h 45 z m 35,0 v 35 z m 20,0 h 11 z m 11,0 V 32 Z m 39,0 v 75 z m 0,50 h -15 z m 0,-10 h 40 z m 20,59 h -20 z m -59,0 v -74 z m 0,-49 h 14 z m -31,49 V 130 Z M 251,85 h 19 z" />
      <!-- クリーン\nベンチ\nルーム -->
      <path
         fill="#b0ffb0"
         stroke="#000000"
         id="Clean_Bench_Room"
         d="m 164,110 v 74 h 90 v -74 z" />
      <!-- N32\n\n\nN31 -->
      <path
         d="m 75,110 v 74 h 89 v -74 z"
         id="Room_N31"
         style="fill:#d0b0ff;fill-opacity:1;stroke:#000000;stroke-opacity:1" />
      <path
         fill="#ffffff"
         stroke="#000000"
         id="____chogo"
         d="m 747,0 v 74 h 46 V 0 Z" />
      <path
         d="m 704,0 v 74 h 43 V 0 Z"
         id="Chemistry_Dept_Office"
         style="fill:#b0d0ff;fill-opacity:1;stroke:#000000;stroke-opacity:1" />
      <path
         d="M 569,0 V 74 H 704 V 0 Z"
         id="Chemistry_Lab_2"
         style="fill:#b0d0ff;fill-opacity:1;stroke:#000000;stroke-opacity:1" />
      <!-- 教職員\nステー\nション -->
      <path
         fill="#d0b0ff"
         stroke="#000000"
         id="Staff_Station"
         d="m 524,0 v 74 h 45 V 0 Z" />
      <path
         fill="#ffffff"
         stroke="#000000"
         id="____souko8"
         d="m 479,0 v 74 h 45 V 0 Z" />
      <path
         fill="#ffffff"
         stroke="#000000"
         id="____souko5"
         d="m 164,0 v 74 h 45 V 0 Z" />
      <path
         d="m 75,0 v 74 h 89 V 0 Z"
         id="Room_N32"
         style="fill:#d0b0ff;fill-opacity:1;stroke:#000000;stroke-opacity:1" />
      <path
         fill="none"
         stroke="#000000"
         d="m 81,184 h 440 v 35 h -65 v 18 h 50 v 18 h 15 v 34 H 81 v -34 h 19 v -18 h 50 V 219 H 81 Z m 491,0 h 215 v 35 h -60 v 36 h 60 v 34 H 572 Z M 81,473 H 521 V 578 H 81 v -34 h 69 V 508 H 81 Z m 491,0 V 578 H 787 V 473 Z"
         id="____inner3" />
      <path
         fill="none"
         stroke="#000000"
         d="M 20,0 H 823 V 289 H 929 V 762 H 20 V 578 H 45 V 473 H 20 V 289 H 45 V 184 H 20 Z"
         id="____outer3" />
      <path
         id="____backyard31"
         style="fill:url(#pattern1);fill-rule:evenodd;stroke-width:0;stroke-linecap:square;stroke-linejoin:round;stroke-miterlimit:0;paint-order:markers stroke fill"
         d="m 20,0 h 802 v 289 h -35 v -34 h -60 v -36 h 60 V 184 H 405 v 21 H 370 V 184 H 20 Z"
         class="UnoptimicedTransforms" />
      <path
         id="____mostleftup3"
         fill="#000000"
         fill-opacity="0"
         d="M 0,0 V 1 L 1,0 Z" />
    </g>
  </g>
</svg>
