<?xml version="1.0" encoding="UTF-8" standalone="no"?>
<svg
   width="1094"
   height="1281.4"
   version="1.1"
   id="svg282"
   viewBox="0 0 1094 1281.4"
   xmlns="http://www.w3.org/2000/svg"
   xmlns:svg="http://www.w3.org/2000/svg">
  <defs
     id="defs1" />
  <!-- 1階 -->
  <g
     id="floor_4"
     style="display:inline"
     transform="translate(-1.5,1.8999995)">
    <g
       transform="translate(20)"
       id="bg4">
      <!-- 4階 -->
      <path
         fill="#ffffe0"
         d="M 56,578 V 762 H 776 V 578 Z"
         id="path238" />
      <path
         fill="none"
         stroke="#000000"
         stroke-width="1px"
         d="m 641,578 v 74 z m 42,0 v 74 z m -21,19 v 36 z m -21,0 h 42 z m 0,3 h 42 z m 0,3 h 42 z m 0,3 h 42 z m 0,3 h 21 z m 0,3 h 42 z m 0,3 h 42 z m 0,3 h 42 z m 0,3 h 42 z m 0,3 h 42 z m 0,3 h 42 z m 0,3 h 42 z m 0,3 h 42 z m 42,-24 -21,-3 z"
         id="____staircase41" />
      <path
         fill="none"
         stroke="#000000"
         stroke-width="1px"
         d="m 149,578 v 74 z m 42,0 v 74 z m -21,19 v 36 z m -21,0 h 42 z m 0,3 h 42 z m 0,3 h 42 z m 0,3 h 42 z m 21,3 h 21 z m -21,3 h 42 z m 0,3 h 42 z m 0,3 h 42 z m 0,3 h 42 z m 0,3 h 42 z m 0,3 h 42 z m 0,3 h 42 z m 0,3 h 42 z m 0,-24 21,-3 z"
         id="____staircase42" />
      <!-- テラス -->
      <path
         fill="#ffd080"
         stroke="#000000"
         stroke-width="1px"
         id="____terrace3"
         d="m 329,578 v 74 h 174 v -74 z" />
      <!-- EV -->
      <path
         fill="#ffffff"
         stroke="#000000"
         stroke-width="1px"
         id="____EV41"
         d="m 683,615 v 37 h 29 v -37 z" />
      <!-- WC -->
      <path
         fill="#ffffff"
         stroke="#000000"
         stroke-width="1px"
         id="____WC41"
         d="m 683,578 h 92 v 74 h -63 v -37 h -29 z" />
      <!-- WC -->
      <path
         fill="#ffffff"
         stroke="#000000"
         stroke-width="1px"
         id="____WC42"
         d="m 57,578 h 92 v 37 h -29 v 37 H 57 Z" />
      <path
         fill="#ffb0b0"
         stroke="#000000"
         stroke-width="1px"
         id="Room_S41"
         d="m 686,688 v 74 h 89 v -74 z" />
      <path
         fill="#ffb0b0"
         stroke="#000000"
         stroke-width="1px"
         id="Room_S42"
         d="m 596,688 v 74 h 90 v -74 z" />
      <path
         fill="#ffb0b0"
         stroke="#000000"
         stroke-width="1px"
         id="Room_S43"
         d="m 506,688 v 74 h 90 v -74 z" />
      <path
         fill="#ffb0b0"
         stroke="#000000"
         stroke-width="1px"
         id="Room_S44"
         d="m 416,688 v 74 h 90 v -74 z" />
      <path
         fill="#ffb0b0"
         stroke="#000000"
         stroke-width="1px"
         id="Room_S45"
         d="m 326,688 v 74 h 90 v -74 z" />
      <path
         fill="#ffb0b0"
         stroke="#000000"
         stroke-width="1px"
         id="Room_S46"
         d="m 236,688 v 74 h 90 v -74 z" />
      <path
         fill="#ffb0b0"
         stroke="#000000"
         stroke-width="1px"
         id="Room_S47"
         d="m 146,688 v 74 h 90 v -74 z" />
      <path
         fill="#ffb0b0"
         stroke="#000000"
         stroke-width="1px"
         id="Room_S48"
         d="m 57,688 v 74 h 89 v -74 z" />
      <path
         fill="none"
         stroke="#000000"
         stroke-width="1px"
         d="M 57,578 V 762 H 775 V 578 Z"
         id="__outer4" />
      <!-- S42  S41 -->
      <!-- S45  S44  S43 -->
      <!-- S48  S47  S46 -->
    </g>
  </g>
</svg>
