<?xml version="1.0" encoding="UTF-8" standalone="no"?>
<svg
   width="1087"
   height="1279"
   version="1.1"
   id="svg282"
   viewBox="0 0 1087 1279"
   xmlns="http://www.w3.org/2000/svg"
   xmlns:svg="http://www.w3.org/2000/svg">
  <defs
     id="defs1" />
  <!-- 1階 -->
  <g
     id="floor_4"
     style="display:inline">
    <g
       id="bg4">
      <!-- 4階 -->
      <path
         fill="#ffffe0"
         d="M 74,578 V 762 H 794 V 578 Z"
         id="path238" />
      <path
         fill="none"
         stroke="#000000"
         d="m 659,578 v 74 z m 42,0 v 74 z m -21,19 v 36 z m -21,0 h 42 z m 0,3 h 42 z m 0,3 h 42 z m 0,3 h 42 z m 0,3 h 21 z m 0,3 h 42 z m 0,3 h 42 z m 0,3 h 42 z m 0,3 h 42 z m 0,3 h 42 z m 0,3 h 42 z m 0,3 h 42 z m 0,3 h 42 z m 42,-24 -21,-3 z"
         id="____staircase41" />
      <path
         fill="none"
         stroke="#000000"
         d="m 167,578 v 74 z m 42,0 v 74 z m -21,19 v 36 z m -21,0 h 42 z m 0,3 h 42 z m 0,3 h 42 z m 0,3 h 42 z m 21,3 h 21 z m -21,3 h 42 z m 0,3 h 42 z m 0,3 h 42 z m 0,3 h 42 z m 0,3 h 42 z m 0,3 h 42 z m 0,3 h 42 z m 0,3 h 42 z m 0,-24 21,-3 z"
         id="____staircase42" />
      <!-- テラス -->
      <path
         fill="#ffd080"
         stroke="#000000"
         id="____terrace3"
         d="m 347,578 v 74 h 174 v -74 z" />
      <!-- EV -->
      <path
         fill="#ffffff"
         stroke="#000000"
         id="____EV41"
         d="m 701,615 v 37 h 29 v -37 z" />
      <!-- WC -->
      <path
         fill="#ffffff"
         stroke="#000000"
         id="____WC41"
         d="m 701,578 h 92 v 74 h -63 v -37 h -29 z" />
      <!-- WC -->
      <path
         fill="#ffffff"
         stroke="#000000"
         id="____WC42"
         d="m 75,578 h 92 v 37 h -29 v 37 H 75 Z" />
      <path
         fill="#ffb0b0"
         stroke="#000000"
         id="Room_S41"
         d="m 704,688 v 74 h 89 v -74 z" />
      <path
         fill="#ffb0b0"
         stroke="#000000"
         id="Room_S42"
         d="m 614,688 v 74 h 90 v -74 z" />
      <path
         fill="#ffb0b0"
         stroke="#000000"
         id="Room_S43"
         d="m 524,688 v 74 h 90 v -74 z" />
      <path
         fill="#ffb0b0"
         stroke="#000000"
         id="Room_S44"
         d="m 434,688 v 74 h 90 v -74 z" />
      <path
         fill="#ffb0b0"
         stroke="#000000"
         id="Room_S45"
         d="m 344,688 v 74 h 90 v -74 z" />
      <path
         fill="#ffb0b0"
         stroke="#000000"
         id="Room_S46"
         d="m 254,688 v 74 h 90 v -74 z" />
      <path
         fill="#ffb0b0"
         stroke="#000000"
         id="Room_S47"
         d="m 164,688 v 74 h 90 v -74 z" />
      <path
         fill="#ffb0b0"
         stroke="#000000"
         id="Room_S48"
         d="m 75,688 v 74 h 89 v -74 z" />
      <path
         fill="none"
         stroke="#000000"
         d="M 75,578 V 762 H 793 V 578 Z"
         id="__outer4" />
      <!-- S42  S41 -->
      <!-- S45  S44  S43 -->
      <!-- S48  S47  S46 -->
    </g>
  </g>
</svg>
