<?xml version="1.0" encoding="UTF-8" standalone="no"?>
<svg
   width="1094"
   height="1281.4"
   version="1.1"
   id="svg282"
   viewBox="0 0 1094 1281.4"
   xmlns="http://www.w3.org/2000/svg"
   xmlns:svg="http://www.w3.org/2000/svg">
  <defs
     id="defs1" />
  <!-- 1階 -->
  <g
     id="floor_6"
     style="display:inline"
     transform="translate(0.5,1.8999995)">
    <g
       transform="translate(20)"
       id="bg6">
      <path
         fill="none"
         stroke="#000000"
         stroke-width="1px"
         d="m 55,578 h 227 v 74 H 546 V 578 H 773 V 762 H 55 Z"
         id="path272-4"
         style="fill:#ffffff;fill-opacity:1;stroke:none" />
      <!-- 6階 -->
      <path
         fill="#e0ffff"
         stroke="#000000"
         stroke-width="1px"
         d="m 147,652 h -34 v 26 h 10 v 8 H 275 123 v 69 H 715 V 686 H 557 715 v -34 h -29 v 9 H 147 Z"
         id="path270" />
      <path
         fill="none"
         stroke="#000000"
         stroke-width="1px"
         d="m 660,578 v 83 h 21 v -83 z m 0,31 h 21 z m 0,3 h 21 z m 0,3 h 21 z m 0,3 h 21 z m 0,3 h 21 z m 0,3 h 21 z m 0,3 h 21 z m 0,3 h 21 z m 0,3 h 21 z m 0,3 h 21 z m 0,3 h 21 z m 0,3 h 21 z m 0,3 h 21 z m 0,3 h 21 z m 0,3 h 21 z m 21,-42 -21,-3 z"
         id="____staircase61" />
      <path
         fill="none"
         stroke="#000000"
         stroke-width="1px"
         d="m 147,578 v 83 h 21 v -83 z m 1,31 h 20 z m -1,3 h 21 z m 0,3 h 21 z m 0,3 h 21 z m 0,3 h 21 z m 0,3 h 21 z m 0,3 h 21 z m 0,3 h 21 z m 0,3 h 21 z m 0,3 h 21 z m 0,3 h 21 z m 0,3 h 21 z m 0,3 h 21 z m 0,3 h 21 z m 0,3 h 21 z m 0,-42 21,-3 z"
         id="____staircase62" />
      <!-- EV -->
      <path
         fill="#ffffff"
         stroke="#000000"
         stroke-width="1px"
         id="____EV61"
         d="m 686,615 v 37 h 29 v -37 z" />
      <!-- WC\n\n  -->
      <path
         fill="#ffffff"
         stroke="#000000"
         stroke-width="1px"
         id="____WC62"
         d="m 113,600 v 52 h 34 v -52 z" />
      <path
         fill="none"
         stroke="#000000"
         stroke-width="1px"
         d="m 55,578 h 227 v 74 H 546 V 578 H 773 V 762 H 55 Z"
         id="____outer6" />
      <!-- 天体観測\n\nドーム -->
      <path
         fill="#c0c0c0"
         stroke="#000000"
         stroke-width="1px"
         id="Astronomical_Observatory"
         d="" />
    </g>
  </g>
</svg>
